<mxfile host="app.diagrams.net" modified="2021-11-07T13:57:38.856Z" agent="5.0 (Macintosh; Intel Mac OS X 10_15_7) AppleWebKit/537.36 (KHTML, like Gecko) Chrome/95.0.4638.69 Safari/537.36" etag="4CXSD2a7BMn1dsn9iLcc" version="15.7.0" type="github">
  <diagram id="wXJArVjDujs8daDJopoD" name="Page-1">
    <mxGraphModel dx="679" dy="378" grid="1" gridSize="10" guides="1" tooltips="1" connect="1" arrows="1" fold="1" page="1" pageScale="1" pageWidth="827" pageHeight="1169" math="0" shadow="0">
      <root>
        <mxCell id="0" />
        <mxCell id="1" parent="0" />
        <mxCell id="mvQrhnk44QogwJOHmzZd-33" value="" style="group" parent="1" vertex="1" connectable="0">
          <mxGeometry x="474" y="684" width="280" height="120" as="geometry" />
        </mxCell>
        <mxCell id="mvQrhnk44QogwJOHmzZd-28" value="" style="shape=internalStorage;whiteSpace=wrap;html=1;backgroundOutline=1;dx=70;dy=20;" parent="mvQrhnk44QogwJOHmzZd-33" vertex="1">
          <mxGeometry width="280" height="120" as="geometry" />
        </mxCell>
        <mxCell id="mvQrhnk44QogwJOHmzZd-29" value="&lt;b&gt;countries&lt;/b&gt;" style="text;html=1;strokeColor=none;fillColor=none;align=center;verticalAlign=middle;whiteSpace=wrap;rounded=0;" parent="mvQrhnk44QogwJOHmzZd-33" vertex="1">
          <mxGeometry x="70" width="210" height="20" as="geometry" />
        </mxCell>
        <mxCell id="mvQrhnk44QogwJOHmzZd-30" value="id&lt;br&gt;name" style="text;html=1;strokeColor=none;fillColor=none;align=center;verticalAlign=top;whiteSpace=wrap;rounded=0;fontStyle=1" parent="mvQrhnk44QogwJOHmzZd-33" vertex="1">
          <mxGeometry x="70" y="20" width="120" height="100" as="geometry" />
        </mxCell>
        <mxCell id="mvQrhnk44QogwJOHmzZd-31" value="PK" style="text;html=1;strokeColor=none;fillColor=none;align=center;verticalAlign=top;whiteSpace=wrap;rounded=0;fontStyle=1" parent="mvQrhnk44QogwJOHmzZd-33" vertex="1">
          <mxGeometry y="20" width="70" height="100" as="geometry" />
        </mxCell>
        <mxCell id="mvQrhnk44QogwJOHmzZd-32" value="INTEGER&lt;br&gt;TEXT" style="text;html=1;strokeColor=none;fillColor=none;align=center;verticalAlign=top;whiteSpace=wrap;rounded=0;" parent="mvQrhnk44QogwJOHmzZd-33" vertex="1">
          <mxGeometry x="190" y="20" width="90" height="100" as="geometry" />
        </mxCell>
        <mxCell id="mvQrhnk44QogwJOHmzZd-34" value="" style="group" parent="1" vertex="1" connectable="0">
          <mxGeometry x="74" y="684" width="280" height="120" as="geometry" />
        </mxCell>
        <mxCell id="mvQrhnk44QogwJOHmzZd-23" value="" style="shape=internalStorage;whiteSpace=wrap;html=1;backgroundOutline=1;dx=70;dy=20;" parent="mvQrhnk44QogwJOHmzZd-34" vertex="1">
          <mxGeometry width="280" height="120" as="geometry" />
        </mxCell>
        <mxCell id="mvQrhnk44QogwJOHmzZd-24" value="&lt;b&gt;locations&lt;/b&gt;" style="text;html=1;strokeColor=none;fillColor=none;align=center;verticalAlign=middle;whiteSpace=wrap;rounded=0;" parent="mvQrhnk44QogwJOHmzZd-34" vertex="1">
          <mxGeometry x="70" width="210" height="20" as="geometry" />
        </mxCell>
        <mxCell id="mvQrhnk44QogwJOHmzZd-25" value="id&lt;br&gt;city&lt;br&gt;country_id" style="text;html=1;strokeColor=none;fillColor=none;align=center;verticalAlign=top;whiteSpace=wrap;rounded=0;fontStyle=1" parent="mvQrhnk44QogwJOHmzZd-34" vertex="1">
          <mxGeometry x="70" y="20" width="120" height="100" as="geometry" />
        </mxCell>
        <mxCell id="mvQrhnk44QogwJOHmzZd-26" value="PK&lt;br&gt;&lt;br&gt;FK1" style="text;html=1;strokeColor=none;fillColor=none;align=center;verticalAlign=top;whiteSpace=wrap;rounded=0;fontStyle=1" parent="mvQrhnk44QogwJOHmzZd-34" vertex="1">
          <mxGeometry y="20" width="70" height="100" as="geometry" />
        </mxCell>
        <mxCell id="mvQrhnk44QogwJOHmzZd-27" value="INTEGER&lt;br&gt;TEXT&lt;br&gt;INTEGER" style="text;html=1;strokeColor=none;fillColor=none;align=center;verticalAlign=top;whiteSpace=wrap;rounded=0;" parent="mvQrhnk44QogwJOHmzZd-34" vertex="1">
          <mxGeometry x="190" y="20" width="90" height="100" as="geometry" />
        </mxCell>
        <mxCell id="mvQrhnk44QogwJOHmzZd-35" value="" style="group" parent="1" vertex="1" connectable="0">
          <mxGeometry x="474" y="524" width="280" height="120" as="geometry" />
        </mxCell>
        <mxCell id="mvQrhnk44QogwJOHmzZd-18" value="" style="shape=internalStorage;whiteSpace=wrap;html=1;backgroundOutline=1;dx=70;dy=20;" parent="mvQrhnk44QogwJOHmzZd-35" vertex="1">
          <mxGeometry width="280" height="120" as="geometry" />
        </mxCell>
        <mxCell id="mvQrhnk44QogwJOHmzZd-19" value="&lt;b&gt;events&lt;/b&gt;" style="text;html=1;strokeColor=none;fillColor=none;align=center;verticalAlign=middle;whiteSpace=wrap;rounded=0;" parent="mvQrhnk44QogwJOHmzZd-35" vertex="1">
          <mxGeometry x="70" width="210" height="20" as="geometry" />
        </mxCell>
        <mxCell id="mvQrhnk44QogwJOHmzZd-20" value="id&lt;br&gt;name&lt;br&gt;type&lt;br&gt;host_id" style="text;html=1;strokeColor=none;fillColor=none;align=center;verticalAlign=top;whiteSpace=wrap;rounded=0;fontStyle=1" parent="mvQrhnk44QogwJOHmzZd-35" vertex="1">
          <mxGeometry x="70" y="20" width="120" height="100" as="geometry" />
        </mxCell>
        <mxCell id="mvQrhnk44QogwJOHmzZd-21" value="PK&lt;br&gt;&lt;br&gt;&lt;br&gt;FK1" style="text;html=1;strokeColor=none;fillColor=none;align=center;verticalAlign=top;whiteSpace=wrap;rounded=0;fontStyle=1" parent="mvQrhnk44QogwJOHmzZd-35" vertex="1">
          <mxGeometry y="20" width="70" height="100" as="geometry" />
        </mxCell>
        <mxCell id="mvQrhnk44QogwJOHmzZd-22" value="INTEGER&lt;br&gt;TEXT&lt;br&gt;TEXT&lt;br&gt;INTEGER" style="text;html=1;strokeColor=none;fillColor=none;align=center;verticalAlign=top;whiteSpace=wrap;rounded=0;" parent="mvQrhnk44QogwJOHmzZd-35" vertex="1">
          <mxGeometry x="190" y="20" width="90" height="100" as="geometry" />
        </mxCell>
        <mxCell id="mvQrhnk44QogwJOHmzZd-36" value="" style="group" parent="1" vertex="1" connectable="0">
          <mxGeometry x="74" y="524" width="280" height="120" as="geometry" />
        </mxCell>
        <mxCell id="mvQrhnk44QogwJOHmzZd-13" value="" style="shape=internalStorage;whiteSpace=wrap;html=1;backgroundOutline=1;dx=70;dy=20;" parent="mvQrhnk44QogwJOHmzZd-36" vertex="1">
          <mxGeometry width="280" height="120" as="geometry" />
        </mxCell>
        <mxCell id="mvQrhnk44QogwJOHmzZd-14" value="&lt;b&gt;organisations&lt;/b&gt;" style="text;html=1;strokeColor=none;fillColor=none;align=center;verticalAlign=middle;whiteSpace=wrap;rounded=0;" parent="mvQrhnk44QogwJOHmzZd-36" vertex="1">
          <mxGeometry x="70" width="210" height="20" as="geometry" />
        </mxCell>
        <mxCell id="mvQrhnk44QogwJOHmzZd-15" value="id&lt;br&gt;name&lt;br&gt;location_id" style="text;html=1;strokeColor=none;fillColor=none;align=center;verticalAlign=top;whiteSpace=wrap;rounded=0;fontStyle=1" parent="mvQrhnk44QogwJOHmzZd-36" vertex="1">
          <mxGeometry x="70" y="20" width="120" height="100" as="geometry" />
        </mxCell>
        <mxCell id="mvQrhnk44QogwJOHmzZd-16" value="PK&lt;br&gt;&lt;br&gt;FK1" style="text;html=1;strokeColor=none;fillColor=none;align=center;verticalAlign=top;whiteSpace=wrap;rounded=0;fontStyle=1" parent="mvQrhnk44QogwJOHmzZd-36" vertex="1">
          <mxGeometry y="20" width="70" height="100" as="geometry" />
        </mxCell>
        <mxCell id="mvQrhnk44QogwJOHmzZd-17" value="INTEGER&lt;br&gt;TEXT&lt;br&gt;INTEGER" style="text;html=1;strokeColor=none;fillColor=none;align=center;verticalAlign=top;whiteSpace=wrap;rounded=0;" parent="mvQrhnk44QogwJOHmzZd-36" vertex="1">
          <mxGeometry x="190" y="20" width="90" height="100" as="geometry" />
        </mxCell>
        <mxCell id="mvQrhnk44QogwJOHmzZd-37" value="" style="group" parent="1" vertex="1" connectable="0">
          <mxGeometry x="74" y="364" width="280" height="120" as="geometry" />
        </mxCell>
        <mxCell id="mvQrhnk44QogwJOHmzZd-8" value="" style="shape=internalStorage;whiteSpace=wrap;html=1;backgroundOutline=1;dx=70;dy=20;" parent="mvQrhnk44QogwJOHmzZd-37" vertex="1">
          <mxGeometry width="280" height="120" as="geometry" />
        </mxCell>
        <mxCell id="mvQrhnk44QogwJOHmzZd-9" value="&lt;b&gt;presenters&lt;/b&gt;" style="text;html=1;strokeColor=none;fillColor=none;align=center;verticalAlign=middle;whiteSpace=wrap;rounded=0;" parent="mvQrhnk44QogwJOHmzZd-37" vertex="1">
          <mxGeometry x="70" width="210" height="20" as="geometry" />
        </mxCell>
        <mxCell id="mvQrhnk44QogwJOHmzZd-10" value="id&lt;br&gt;name&lt;br&gt;organisation_id" style="text;html=1;strokeColor=none;fillColor=none;align=center;verticalAlign=top;whiteSpace=wrap;rounded=0;fontStyle=1" parent="mvQrhnk44QogwJOHmzZd-37" vertex="1">
          <mxGeometry x="70" y="20" width="120" height="100" as="geometry" />
        </mxCell>
        <mxCell id="mvQrhnk44QogwJOHmzZd-11" value="PK&lt;br&gt;&lt;br&gt;FK1" style="text;html=1;strokeColor=none;fillColor=none;align=center;verticalAlign=top;whiteSpace=wrap;rounded=0;fontStyle=1" parent="mvQrhnk44QogwJOHmzZd-37" vertex="1">
          <mxGeometry y="20" width="70" height="100" as="geometry" />
        </mxCell>
        <mxCell id="mvQrhnk44QogwJOHmzZd-12" value="INTEGER&lt;br&gt;TEXT&lt;br&gt;INTEGER" style="text;html=1;strokeColor=none;fillColor=none;align=center;verticalAlign=top;whiteSpace=wrap;rounded=0;" parent="mvQrhnk44QogwJOHmzZd-37" vertex="1">
          <mxGeometry x="190" y="20" width="90" height="100" as="geometry" />
        </mxCell>
        <mxCell id="Nrg1gerYHbqBMEmIkOEw-1" value="" style="group" vertex="1" connectable="0" parent="1">
          <mxGeometry x="474" y="364" width="280" height="120" as="geometry" />
        </mxCell>
        <mxCell id="Nrg1gerYHbqBMEmIkOEw-2" value="" style="shape=internalStorage;whiteSpace=wrap;html=1;backgroundOutline=1;dx=70;dy=20;" vertex="1" parent="Nrg1gerYHbqBMEmIkOEw-1">
          <mxGeometry width="280" height="120" as="geometry" />
        </mxCell>
        <mxCell id="Nrg1gerYHbqBMEmIkOEw-3" value="&lt;b&gt;event_presenters&lt;/b&gt;" style="text;html=1;strokeColor=none;fillColor=none;align=center;verticalAlign=middle;whiteSpace=wrap;rounded=0;" vertex="1" parent="Nrg1gerYHbqBMEmIkOEw-1">
          <mxGeometry x="70" width="210" height="20" as="geometry" />
        </mxCell>
        <mxCell id="Nrg1gerYHbqBMEmIkOEw-4" value="presenter_id&lt;br&gt;event_id" style="text;html=1;strokeColor=none;fillColor=none;align=center;verticalAlign=top;whiteSpace=wrap;rounded=0;fontStyle=1" vertex="1" parent="Nrg1gerYHbqBMEmIkOEw-1">
          <mxGeometry x="70" y="20" width="120" height="100" as="geometry" />
        </mxCell>
        <mxCell id="Nrg1gerYHbqBMEmIkOEw-5" value="PK, FK1&lt;br&gt;PK, FK2" style="text;html=1;strokeColor=none;fillColor=none;align=center;verticalAlign=top;whiteSpace=wrap;rounded=0;fontStyle=1" vertex="1" parent="Nrg1gerYHbqBMEmIkOEw-1">
          <mxGeometry y="20" width="70" height="100" as="geometry" />
        </mxCell>
        <mxCell id="Nrg1gerYHbqBMEmIkOEw-6" value="INTEGER&lt;br&gt;INTEGER" style="text;html=1;strokeColor=none;fillColor=none;align=center;verticalAlign=top;whiteSpace=wrap;rounded=0;" vertex="1" parent="Nrg1gerYHbqBMEmIkOEw-1">
          <mxGeometry x="190" y="20" width="90" height="100" as="geometry" />
        </mxCell>
        <mxCell id="Nrg1gerYHbqBMEmIkOEw-16" style="edgeStyle=orthogonalEdgeStyle;rounded=0;orthogonalLoop=1;jettySize=auto;html=1;exitX=0;exitY=0.25;exitDx=0;exitDy=0;entryX=1;entryY=0.25;entryDx=0;entryDy=0;" edge="1" parent="1" source="Nrg1gerYHbqBMEmIkOEw-5" target="mvQrhnk44QogwJOHmzZd-12">
          <mxGeometry relative="1" as="geometry" />
        </mxCell>
        <mxCell id="Nrg1gerYHbqBMEmIkOEw-17" style="edgeStyle=orthogonalEdgeStyle;rounded=0;orthogonalLoop=1;jettySize=auto;html=1;exitX=0;exitY=0.75;exitDx=0;exitDy=0;entryX=0;entryY=0.25;entryDx=0;entryDy=0;" edge="1" parent="1" source="Nrg1gerYHbqBMEmIkOEw-5" target="mvQrhnk44QogwJOHmzZd-21">
          <mxGeometry relative="1" as="geometry">
            <mxPoint x="444" y="554" as="targetPoint" />
          </mxGeometry>
        </mxCell>
        <mxCell id="Nrg1gerYHbqBMEmIkOEw-18" style="edgeStyle=orthogonalEdgeStyle;rounded=0;orthogonalLoop=1;jettySize=auto;html=1;exitX=0;exitY=0.75;exitDx=0;exitDy=0;entryX=1;entryY=0.25;entryDx=0;entryDy=0;" edge="1" parent="1" source="mvQrhnk44QogwJOHmzZd-21" target="mvQrhnk44QogwJOHmzZd-17">
          <mxGeometry relative="1" as="geometry" />
        </mxCell>
        <mxCell id="Nrg1gerYHbqBMEmIkOEw-19" style="edgeStyle=orthogonalEdgeStyle;rounded=0;orthogonalLoop=1;jettySize=auto;html=1;exitX=1;exitY=0.75;exitDx=0;exitDy=0;entryX=1;entryY=0.25;entryDx=0;entryDy=0;" edge="1" parent="1" source="mvQrhnk44QogwJOHmzZd-12" target="mvQrhnk44QogwJOHmzZd-17">
          <mxGeometry relative="1" as="geometry" />
        </mxCell>
        <mxCell id="Nrg1gerYHbqBMEmIkOEw-20" style="edgeStyle=orthogonalEdgeStyle;rounded=0;orthogonalLoop=1;jettySize=auto;html=1;exitX=1;exitY=0.75;exitDx=0;exitDy=0;entryX=1;entryY=0.25;entryDx=0;entryDy=0;" edge="1" parent="1" source="mvQrhnk44QogwJOHmzZd-17" target="mvQrhnk44QogwJOHmzZd-27">
          <mxGeometry relative="1" as="geometry" />
        </mxCell>
        <mxCell id="Nrg1gerYHbqBMEmIkOEw-21" style="edgeStyle=orthogonalEdgeStyle;rounded=0;orthogonalLoop=1;jettySize=auto;html=1;exitX=1;exitY=0.75;exitDx=0;exitDy=0;entryX=0;entryY=0.75;entryDx=0;entryDy=0;" edge="1" parent="1" source="mvQrhnk44QogwJOHmzZd-27" target="mvQrhnk44QogwJOHmzZd-31">
          <mxGeometry relative="1" as="geometry" />
        </mxCell>
      </root>
    </mxGraphModel>
  </diagram>
</mxfile>
